{
    "asset" : {
        "copyright" : "Oguzhan Yagci",
        "generator" : "Khronos glTF Blender I/O v1.1.46",
        "version" : "2.0"
    },
    "scene" : 0,
    "scenes" : [
        {
            "name" : "Scene",
            "nodes" : [
                0,
                1,
                2
            ]
        }
    ],
    "nodes" : [
        {
            "mesh" : 0,
            "name" : "Cube.008"
        },
        {
            "mesh" : 1,
            "name" : "Cube.009"
        },
        {
            "mesh" : 2,
            "name" : "Cube.010"
        }
    ],
    "materials" : [
        {
            "doubleSided" : true,
            "emissiveFactor" : [
                0,
                0,
                0
            ],
            "name" : "Grey-Plastic",
            "pbrMetallicRoughness" : {
                "baseColorFactor" : [
                    0.006370244547724724,
                    0.006370244547724724,
                    0.006370244547724724,
                    1
                ],
                "metallicFactor" : 0,
                "roughnessFactor" : 0.6971428394317627
            }
        },
        {
            "doubleSided" : true,
            "emissiveFactor" : [
                0,
                0,
                0
            ],
            "name" : "Clear-Grey-Plastic",
            "pbrMetallicRoughness" : {
                "baseColorFactor" : [
                    0.25294366478919983,
                    0.25294366478919983,
                    0.25294366478919983,
                    1
                ],
                "metallicFactor" : 0,
                "roughnessFactor" : 0.5
            }
        },
        {
            "doubleSided" : true,
            "emissiveFactor" : [
                0,
                0,
                0
            ],
            "name" : "Blue-Plastic",
            "pbrMetallicRoughness" : {
                "baseColorFactor" : [
                    0,
                    0,
                    0.8428571224212646,
                    1
                ],
                "metallicFactor" : 0,
                "roughnessFactor" : 0.5
            }
        },
        {
            "doubleSided" : true,
            "emissiveFactor" : [
                0,
                0,
                0
            ],
            "name" : "Yellow-Plastic",
            "pbrMetallicRoughness" : {
                "baseColorFactor" : [
                    0.6803097128868103,
                    0.6859572529792786,
                    0,
                    1
                ],
                "metallicFactor" : 0,
                "roughnessFactor" : 0.5
            }
        }
    ],
    "meshes" : [
        {
            "name" : "Cube.023",
            "primitives" : [
                {
                    "attributes" : {
                        "POSITION" : 0,
                        "NORMAL" : 1,
                        "TANGENT" : 2,
                        "TEXCOORD_0" : 3
                    },
                    "indices" : 4,
                    "material" : 0
                },
                {
                    "attributes" : {
                        "POSITION" : 5,
                        "NORMAL" : 6,
                        "TANGENT" : 7,
                        "TEXCOORD_0" : 8
                    },
                    "indices" : 9,
                    "material" : 1
                }
            ]
        },
        {
            "name" : "Cube.024",
            "primitives" : [
                {
                    "attributes" : {
                        "POSITION" : 10,
                        "NORMAL" : 11,
                        "TANGENT" : 12,
                        "TEXCOORD_0" : 13
                    },
                    "indices" : 14,
                    "material" : 0
                },
                {
                    "attributes" : {
                        "POSITION" : 15,
                        "NORMAL" : 16,
                        "TANGENT" : 17,
                        "TEXCOORD_0" : 18
                    },
                    "indices" : 9,
                    "material" : 2
                }
            ]
        },
        {
            "name" : "Cube.025",
            "primitives" : [
                {
                    "attributes" : {
                        "POSITION" : 19,
                        "NORMAL" : 20,
                        "TANGENT" : 21,
                        "TEXCOORD_0" : 22
                    },
                    "indices" : 23,
                    "material" : 0
                },
                {
                    "attributes" : {
                        "POSITION" : 24,
                        "NORMAL" : 25,
                        "TANGENT" : 26,
                        "TEXCOORD_0" : 27
                    },
                    "indices" : 28,
                    "material" : 3
                }
            ]
        }
    ],
    "accessors" : [
        {
            "bufferView" : 0,
            "componentType" : 5126,
            "count" : 180,
            "max" : [
                40.12868118286133,
                23.21123504638672,
                37.8050422668457
            ],
            "min" : [
                -31.139543533325195,
                0.510145902633667,
                13.830862045288086
            ],
            "type" : "VEC3"
        },
        {
            "bufferView" : 1,
            "componentType" : 5126,
            "count" : 180,
            "type" : "VEC3"
        },
        {
            "bufferView" : 2,
            "componentType" : 5126,
            "count" : 180,
            "type" : "VEC4"
        },
        {
            "bufferView" : 3,
            "componentType" : 5126,
            "count" : 180,
            "type" : "VEC2"
        },
        {
            "bufferView" : 4,
            "componentType" : 5123,
            "count" : 270,
            "type" : "SCALAR"
        },
        {
            "bufferView" : 5,
            "componentType" : 5126,
            "count" : 4,
            "max" : [
                38.09036636352539,
                22.84197235107422,
                33.86754608154297
            ],
            "min" : [
                23.809947967529297,
                20.693498611450195,
                18.988550186157227
            ],
            "type" : "VEC3"
        },
        {
            "bufferView" : 6,
            "componentType" : 5126,
            "count" : 4,
            "type" : "VEC3"
        },
        {
            "bufferView" : 7,
            "componentType" : 5126,
            "count" : 4,
            "type" : "VEC4"
        },
        {
            "bufferView" : 8,
            "componentType" : 5126,
            "count" : 4,
            "type" : "VEC2"
        },
        {
            "bufferView" : 9,
            "componentType" : 5123,
            "count" : 6,
            "type" : "SCALAR"
        },
        {
            "bufferView" : 10,
            "componentType" : 5126,
            "count" : 180,
            "max" : [
                -4.405656814575195,
                40.23875427246094,
                34.406402587890625
            ],
            "min" : [
                -24.94769859313965,
                0.4208259582519531,
                -35.569149017333984
            ],
            "type" : "VEC3"
        },
        {
            "bufferView" : 11,
            "componentType" : 5126,
            "count" : 180,
            "type" : "VEC3"
        },
        {
            "bufferView" : 12,
            "componentType" : 5126,
            "count" : 180,
            "type" : "VEC4"
        },
        {
            "bufferView" : 13,
            "componentType" : 5126,
            "count" : 180,
            "type" : "VEC2"
        },
        {
            "bufferView" : 14,
            "componentType" : 5123,
            "count" : 270,
            "type" : "SCALAR"
        },
        {
            "bufferView" : 15,
            "componentType" : 5126,
            "count" : 4,
            "max" : [
                -23.404796600341797,
                38.28559875488281,
                32.77620315551758
            ],
            "min" : [
                -24.70380210876465,
                20.900897979736328,
                15.80429458618164
            ],
            "type" : "VEC3"
        },
        {
            "bufferView" : 16,
            "componentType" : 5126,
            "count" : 4,
            "type" : "VEC3"
        },
        {
            "bufferView" : 17,
            "componentType" : 5126,
            "count" : 4,
            "type" : "VEC4"
        },
        {
            "bufferView" : 18,
            "componentType" : 5126,
            "count" : 4,
            "type" : "VEC2"
        },
        {
            "bufferView" : 19,
            "componentType" : 5126,
            "count" : 180,
            "max" : [
                43.786861419677734,
                39.532257080078125,
                12.30093002319336
            ],
            "min" : [
                -26.226484298706055,
                0.8374538421630859,
                -38.683937072753906
            ],
            "type" : "VEC3"
        },
        {
            "bufferView" : 20,
            "componentType" : 5126,
            "count" : 180,
            "type" : "VEC3"
        },
        {
            "bufferView" : 21,
            "componentType" : 5126,
            "count" : 180,
            "type" : "VEC4"
        },
        {
            "bufferView" : 22,
            "componentType" : 5126,
            "count" : 180,
            "type" : "VEC2"
        },
        {
            "bufferView" : 23,
            "componentType" : 5123,
            "count" : 270,
            "type" : "SCALAR"
        },
        {
            "bufferView" : 24,
            "componentType" : 5126,
            "count" : 4,
            "max" : [
                -8.04560375213623,
                37.932987213134766,
                -11.699527740478516
            ],
            "min" : [
                -24.592256546020508,
                24.077865600585938,
                -23.533206939697266
            ],
            "type" : "VEC3"
        },
        {
            "bufferView" : 25,
            "componentType" : 5126,
            "count" : 4,
            "type" : "VEC3"
        },
        {
            "bufferView" : 26,
            "componentType" : 5126,
            "count" : 4,
            "type" : "VEC4"
        },
        {
            "bufferView" : 27,
            "componentType" : 5126,
            "count" : 4,
            "type" : "VEC2"
        },
        {
            "bufferView" : 28,
            "componentType" : 5123,
            "count" : 6,
            "type" : "SCALAR"
        }
    ],
    "bufferViews" : [
        {
            "buffer" : 0,
            "byteLength" : 2160,
            "byteOffset" : 0
        },
        {
            "buffer" : 0,
            "byteLength" : 2160,
            "byteOffset" : 2160
        },
        {
            "buffer" : 0,
            "byteLength" : 2880,
            "byteOffset" : 4320
        },
        {
            "buffer" : 0,
            "byteLength" : 1440,
            "byteOffset" : 7200
        },
        {
            "buffer" : 0,
            "byteLength" : 540,
            "byteOffset" : 8640
        },
        {
            "buffer" : 0,
            "byteLength" : 48,
            "byteOffset" : 9180
        },
        {
            "buffer" : 0,
            "byteLength" : 48,
            "byteOffset" : 9228
        },
        {
            "buffer" : 0,
            "byteLength" : 64,
            "byteOffset" : 9276
        },
        {
            "buffer" : 0,
            "byteLength" : 32,
            "byteOffset" : 9340
        },
        {
            "buffer" : 0,
            "byteLength" : 12,
            "byteOffset" : 9372
        },
        {
            "buffer" : 0,
            "byteLength" : 2160,
            "byteOffset" : 9384
        },
        {
            "buffer" : 0,
            "byteLength" : 2160,
            "byteOffset" : 11544
        },
        {
            "buffer" : 0,
            "byteLength" : 2880,
            "byteOffset" : 13704
        },
        {
            "buffer" : 0,
            "byteLength" : 1440,
            "byteOffset" : 16584
        },
        {
            "buffer" : 0,
            "byteLength" : 540,
            "byteOffset" : 18024
        },
        {
            "buffer" : 0,
            "byteLength" : 48,
            "byteOffset" : 18564
        },
        {
            "buffer" : 0,
            "byteLength" : 48,
            "byteOffset" : 18612
        },
        {
            "buffer" : 0,
            "byteLength" : 64,
            "byteOffset" : 18660
        },
        {
            "buffer" : 0,
            "byteLength" : 32,
            "byteOffset" : 18724
        },
        {
            "buffer" : 0,
            "byteLength" : 2160,
            "byteOffset" : 18756
        },
        {
            "buffer" : 0,
            "byteLength" : 2160,
            "byteOffset" : 20916
        },
        {
            "buffer" : 0,
            "byteLength" : 2880,
            "byteOffset" : 23076
        },
        {
            "buffer" : 0,
            "byteLength" : 1440,
            "byteOffset" : 25956
        },
        {
            "buffer" : 0,
            "byteLength" : 540,
            "byteOffset" : 27396
        },
        {
            "buffer" : 0,
            "byteLength" : 48,
            "byteOffset" : 27936
        },
        {
            "buffer" : 0,
            "byteLength" : 48,
            "byteOffset" : 27984
        },
        {
            "buffer" : 0,
            "byteLength" : 64,
            "byteOffset" : 28032
        },
        {
            "buffer" : 0,
            "byteLength" : 32,
            "byteOffset" : 28096
        },
        {
            "buffer" : 0,
            "byteLength" : 12,
            "byteOffset" : 28128
        }
    ],
    "buffers" : [
        {
            "byteLength" : 28140,
            "uri" : "Cluster-Trashcans.bin"
        }
    ]
}
