{
    "asset" : {
        "copyright" : "Oguzhan Yagci",
        "generator" : "Khronos glTF Blender I/O v1.1.46",
        "version" : "2.0"
    },
    "scene" : 0,
    "scenes" : [
        {
            "name" : "Scene",
            "nodes" : [
                0,
                1,
                2
            ]
        }
    ],
    "nodes" : [
        {
            "mesh" : 0,
            "name" : "Cube.001"
        },
        {
            "mesh" : 1,
            "name" : "Pillar.001"
        },
        {
            "mesh" : 2,
            "name" : "Cube.002"
        }
    ],
    "materials" : [
        {
            "doubleSided" : true,
            "emissiveFactor" : [
                0,
                0,
                0
            ],
            "name" : "Brushed_Aluminum_shkaaafc",
            "normalTexture" : {
                "index" : 0,
                "texCoord" : 0
            },
            "pbrMetallicRoughness" : {
                "baseColorTexture" : {
                    "index" : 1,
                    "texCoord" : 0
                },
                "metallicFactor" : 1,
                "metallicRoughnessTexture" : {
                    "index" : 2,
                    "texCoord" : 0
                }
            }
        },
        {
            "doubleSided" : true,
            "emissiveFactor" : [
                0,
                0,
                0
            ],
            "name" : "Painted_Metal_Door_2x1_ugzobcglw",
            "normalTexture" : {
                "index" : 3,
                "texCoord" : 0
            },
            "pbrMetallicRoughness" : {
                "baseColorTexture" : {
                    "index" : 4,
                    "texCoord" : 0
                },
                "metallicFactor" : 1,
                "metallicRoughnessTexture" : {
                    "index" : 5,
                    "texCoord" : 0
                }
            }
        }
    ],
    "meshes" : [
        {
            "name" : "Cube.007",
            "primitives" : [
                {
                    "attributes" : {
                        "POSITION" : 0,
                        "NORMAL" : 1,
                        "TANGENT" : 2,
                        "TEXCOORD_0" : 3
                    },
                    "indices" : 4,
                    "material" : 0
                }
            ]
        },
        {
            "name" : "Cube.006",
            "primitives" : [
                {
                    "attributes" : {
                        "POSITION" : 5,
                        "NORMAL" : 6,
                        "TANGENT" : 7,
                        "TEXCOORD_0" : 8
                    },
                    "indices" : 9,
                    "material" : 1
                }
            ]
        },
        {
            "name" : "Cube.010",
            "primitives" : [
                {
                    "attributes" : {
                        "POSITION" : 10,
                        "NORMAL" : 11,
                        "TANGENT" : 12,
                        "TEXCOORD_0" : 13
                    },
                    "indices" : 14,
                    "material" : 1
                }
            ]
        }
    ],
    "textures" : [
        {
            "source" : 0
        },
        {
            "source" : 1
        },
        {
            "source" : 2
        },
        {
            "source" : 3
        },
        {
            "source" : 4
        },
        {
            "source" : 5
        }
    ],
    "images" : [
        {
            "mimeType" : "image/jpeg",
            "name" : "shkaaafc_2K_Normal",
            "uri" : "textures/shkaaafc_2K_Normal.jpg"
        },
        {
            "mimeType" : "image/jpeg",
            "name" : "shkaaafc_2K_Albedo",
            "uri" : "textures/shkaaafc_2K_Albedo.jpg"
        },
        {
            "mimeType" : "image/jpeg",
            "name" : "shkaaafc_2K_Roughness",
            "uri" : "textures/shkaaafc_2K_Roughness.jpg"
        },
        {
            "mimeType" : "image/jpeg",
            "name" : "ugzobcglw_2K_Normal",
            "uri" : "textures/ugzobcglw_2K_Normal.jpg"
        },
        {
            "mimeType" : "image/jpeg",
            "name" : "ugzobcglw_2K_Albedo",
            "uri" : "textures/ugzobcglw_2K_Albedo.jpg"
        },
        {
            "mimeType" : "image/jpeg",
            "name" : "ugzobcglw_2K_Roughness",
            "uri" : "textures/ugzobcglw_2K_Roughness.jpg"
        }
    ],
    "accessors" : [
        {
            "bufferView" : 0,
            "componentType" : 5126,
            "count" : 18486,
            "max" : [
                44.936832427978516,
                68.16935729980469,
                44.936832427978516
            ],
            "min" : [
                -44.936832427978516,
                -5.409173011779785,
                -44.936832427978516
            ],
            "type" : "VEC3"
        },
        {
            "bufferView" : 1,
            "componentType" : 5126,
            "count" : 18486,
            "type" : "VEC3"
        },
        {
            "bufferView" : 2,
            "componentType" : 5126,
            "count" : 18486,
            "type" : "VEC4"
        },
        {
            "bufferView" : 3,
            "componentType" : 5126,
            "count" : 18486,
            "type" : "VEC2"
        },
        {
            "bufferView" : 4,
            "componentType" : 5123,
            "count" : 32928,
            "type" : "SCALAR"
        },
        {
            "bufferView" : 5,
            "componentType" : 5126,
            "count" : 16,
            "max" : [
                41.438819885253906,
                90,
                41.438812255859375
            ],
            "min" : [
                -41.438819885253906,
                0,
                -41.438812255859375
            ],
            "type" : "VEC3"
        },
        {
            "bufferView" : 6,
            "componentType" : 5126,
            "count" : 16,
            "type" : "VEC3"
        },
        {
            "bufferView" : 7,
            "componentType" : 5126,
            "count" : 16,
            "type" : "VEC4"
        },
        {
            "bufferView" : 8,
            "componentType" : 5126,
            "count" : 16,
            "type" : "VEC2"
        },
        {
            "bufferView" : 9,
            "componentType" : 5123,
            "count" : 24,
            "type" : "SCALAR"
        },
        {
            "bufferView" : 10,
            "componentType" : 5126,
            "count" : 4,
            "max" : [
                100,
                90,
                100
            ],
            "min" : [
                -100,
                90,
                -100
            ],
            "type" : "VEC3"
        },
        {
            "bufferView" : 11,
            "componentType" : 5126,
            "count" : 4,
            "type" : "VEC3"
        },
        {
            "bufferView" : 12,
            "componentType" : 5126,
            "count" : 4,
            "type" : "VEC4"
        },
        {
            "bufferView" : 13,
            "componentType" : 5126,
            "count" : 4,
            "type" : "VEC2"
        },
        {
            "bufferView" : 14,
            "componentType" : 5123,
            "count" : 6,
            "type" : "SCALAR"
        }
    ],
    "bufferViews" : [
        {
            "buffer" : 0,
            "byteLength" : 221832,
            "byteOffset" : 0
        },
        {
            "buffer" : 0,
            "byteLength" : 221832,
            "byteOffset" : 221832
        },
        {
            "buffer" : 0,
            "byteLength" : 295776,
            "byteOffset" : 443664
        },
        {
            "buffer" : 0,
            "byteLength" : 147888,
            "byteOffset" : 739440
        },
        {
            "buffer" : 0,
            "byteLength" : 65856,
            "byteOffset" : 887328
        },
        {
            "buffer" : 0,
            "byteLength" : 192,
            "byteOffset" : 953184
        },
        {
            "buffer" : 0,
            "byteLength" : 192,
            "byteOffset" : 953376
        },
        {
            "buffer" : 0,
            "byteLength" : 256,
            "byteOffset" : 953568
        },
        {
            "buffer" : 0,
            "byteLength" : 128,
            "byteOffset" : 953824
        },
        {
            "buffer" : 0,
            "byteLength" : 48,
            "byteOffset" : 953952
        },
        {
            "buffer" : 0,
            "byteLength" : 48,
            "byteOffset" : 954000
        },
        {
            "buffer" : 0,
            "byteLength" : 48,
            "byteOffset" : 954048
        },
        {
            "buffer" : 0,
            "byteLength" : 64,
            "byteOffset" : 954096
        },
        {
            "buffer" : 0,
            "byteLength" : 32,
            "byteOffset" : 954160
        },
        {
            "buffer" : 0,
            "byteLength" : 12,
            "byteOffset" : 954192
        }
    ],
    "buffers" : [
        {
            "byteLength" : 954204,
            "uri" : "Cluster-Pillar-Ceiling.bin"
        }
    ]
}
