{
    "asset" : {
        "copyright" : "Oguzhan Yagci",
        "generator" : "Khronos glTF Blender I/O v1.1.46",
        "version" : "2.0"
    },
    "scene" : 0,
    "scenes" : [
        {
            "name" : "Scene",
            "nodes" : [
                0,
                1,
                2,
                3,
                4
            ]
        }
    ],
    "nodes" : [
        {
            "mesh" : 0,
            "name" : "Pillar"
        },
        {
            "mesh" : 1,
            "name" : "Cube"
        },
        {
            "mesh" : 2,
            "name" : "Cube.001"
        },
        {
            "mesh" : 3,
            "name" : "Pillar.001"
        },
        {
            "mesh" : 4,
            "name" : "Cube.002"
        }
    ],
    "materials" : [
        {
            "doubleSided" : true,
            "emissiveFactor" : [
                0,
                0,
                0
            ],
            "name" : "Painted_Metal_Door_2x1_ugzobcglw",
            "normalTexture" : {
                "index" : 0,
                "texCoord" : 0
            },
            "pbrMetallicRoughness" : {
                "baseColorTexture" : {
                    "index" : 1,
                    "texCoord" : 0
                },
                "metallicFactor" : 1,
                "metallicRoughnessTexture" : {
                    "index" : 2,
                    "texCoord" : 0
                }
            }
        },
        {
            "doubleSided" : true,
            "emissiveFactor" : [
                0,
                0,
                0
            ],
            "name" : "Brushed_Aluminum_shkaaafc",
            "normalTexture" : {
                "index" : 3,
                "texCoord" : 0
            },
            "pbrMetallicRoughness" : {
                "baseColorTexture" : {
                    "index" : 4,
                    "texCoord" : 0
                },
                "metallicFactor" : 1,
                "metallicRoughnessTexture" : {
                    "index" : 5,
                    "texCoord" : 0
                }
            }
        }
    ],
    "meshes" : [
        {
            "name" : "Cube.008",
            "primitives" : [
                {
                    "attributes" : {
                        "POSITION" : 0,
                        "NORMAL" : 1,
                        "TANGENT" : 2,
                        "TEXCOORD_0" : 3
                    },
                    "indices" : 4,
                    "material" : 0
                }
            ]
        },
        {
            "name" : "Cube.002",
            "primitives" : [
                {
                    "attributes" : {
                        "POSITION" : 5,
                        "NORMAL" : 6,
                        "TANGENT" : 7,
                        "TEXCOORD_0" : 8
                    },
                    "indices" : 9,
                    "material" : 1
                }
            ]
        },
        {
            "name" : "Cube.007",
            "primitives" : [
                {
                    "attributes" : {
                        "POSITION" : 10,
                        "NORMAL" : 11,
                        "TANGENT" : 12,
                        "TEXCOORD_0" : 13
                    },
                    "indices" : 14,
                    "material" : 1
                }
            ]
        },
        {
            "name" : "Cube.006",
            "primitives" : [
                {
                    "attributes" : {
                        "POSITION" : 15,
                        "NORMAL" : 16,
                        "TANGENT" : 17,
                        "TEXCOORD_0" : 18
                    },
                    "indices" : 19,
                    "material" : 0
                }
            ]
        },
        {
            "name" : "Cube.010",
            "primitives" : [
                {
                    "attributes" : {
                        "POSITION" : 20,
                        "NORMAL" : 21,
                        "TANGENT" : 22,
                        "TEXCOORD_0" : 23
                    },
                    "indices" : 24,
                    "material" : 0
                }
            ]
        }
    ],
    "textures" : [
        {
            "source" : 0
        },
        {
            "source" : 1
        },
        {
            "source" : 2
        },
        {
            "source" : 3
        },
        {
            "source" : 4
        },
        {
            "source" : 5
        }
    ],
    "images" : [
        {
            "mimeType" : "image/jpeg",
            "name" : "ugzobcglw_2K_Normal",
            "uri" : "textures/ugzobcglw_2K_Normal.jpg"
        },
        {
            "mimeType" : "image/jpeg",
            "name" : "ugzobcglw_2K_Albedo",
            "uri" : "textures/ugzobcglw_2K_Albedo.jpg"
        },
        {
            "mimeType" : "image/jpeg",
            "name" : "ugzobcglw_2K_Roughness",
            "uri" : "textures/ugzobcglw_2K_Roughness.jpg"
        },
        {
            "mimeType" : "image/jpeg",
            "name" : "shkaaafc_2K_Normal",
            "uri" : "textures/shkaaafc_2K_Normal.jpg"
        },
        {
            "mimeType" : "image/jpeg",
            "name" : "shkaaafc_2K_Albedo",
            "uri" : "textures/shkaaafc_2K_Albedo.jpg"
        },
        {
            "mimeType" : "image/jpeg",
            "name" : "shkaaafc_2K_Roughness",
            "uri" : "textures/shkaaafc_2K_Roughness.jpg"
        }
    ],
    "accessors" : [
        {
            "bufferView" : 0,
            "componentType" : 5126,
            "count" : 24,
            "max" : [
                41.438819885253906,
                200,
                41.438812255859375
            ],
            "min" : [
                -41.438819885253906,
                0,
                -41.438812255859375
            ],
            "type" : "VEC3"
        },
        {
            "bufferView" : 1,
            "componentType" : 5126,
            "count" : 24,
            "type" : "VEC3"
        },
        {
            "bufferView" : 2,
            "componentType" : 5126,
            "count" : 24,
            "type" : "VEC4"
        },
        {
            "bufferView" : 3,
            "componentType" : 5126,
            "count" : 24,
            "type" : "VEC2"
        },
        {
            "bufferView" : 4,
            "componentType" : 5123,
            "count" : 36,
            "type" : "SCALAR"
        },
        {
            "bufferView" : 5,
            "componentType" : 5126,
            "count" : 45922,
            "max" : [
                44.936832427978516,
                194.5868377685547,
                44.936832427978516
            ],
            "min" : [
                -44.936832427978516,
                5.413166046142578,
                -44.936832427978516
            ],
            "type" : "VEC3"
        },
        {
            "bufferView" : 6,
            "componentType" : 5126,
            "count" : 45922,
            "type" : "VEC3"
        },
        {
            "bufferView" : 7,
            "componentType" : 5126,
            "count" : 45922,
            "type" : "VEC4"
        },
        {
            "bufferView" : 8,
            "componentType" : 5126,
            "count" : 45922,
            "type" : "VEC2"
        },
        {
            "bufferView" : 9,
            "componentType" : 5123,
            "count" : 83328,
            "type" : "SCALAR"
        },
        {
            "bufferView" : 10,
            "componentType" : 5126,
            "count" : 18944,
            "max" : [
                44.936832427978516,
                268.16937255859375,
                44.936832427978516
            ],
            "min" : [
                -44.936832427978516,
                194.5908203125,
                -44.936832427978516
            ],
            "type" : "VEC3"
        },
        {
            "bufferView" : 11,
            "componentType" : 5126,
            "count" : 18944,
            "type" : "VEC3"
        },
        {
            "bufferView" : 12,
            "componentType" : 5126,
            "count" : 18944,
            "type" : "VEC4"
        },
        {
            "bufferView" : 13,
            "componentType" : 5126,
            "count" : 18944,
            "type" : "VEC2"
        },
        {
            "bufferView" : 14,
            "componentType" : 5123,
            "count" : 32928,
            "type" : "SCALAR"
        },
        {
            "bufferView" : 15,
            "componentType" : 5126,
            "count" : 16,
            "max" : [
                41.438819885253906,
                290,
                41.438812255859375
            ],
            "min" : [
                -41.438819885253906,
                200,
                -41.438812255859375
            ],
            "type" : "VEC3"
        },
        {
            "bufferView" : 16,
            "componentType" : 5126,
            "count" : 16,
            "type" : "VEC3"
        },
        {
            "bufferView" : 17,
            "componentType" : 5126,
            "count" : 16,
            "type" : "VEC4"
        },
        {
            "bufferView" : 18,
            "componentType" : 5126,
            "count" : 16,
            "type" : "VEC2"
        },
        {
            "bufferView" : 19,
            "componentType" : 5123,
            "count" : 24,
            "type" : "SCALAR"
        },
        {
            "bufferView" : 20,
            "componentType" : 5126,
            "count" : 4,
            "max" : [
                100,
                290,
                100
            ],
            "min" : [
                -100,
                290,
                -100
            ],
            "type" : "VEC3"
        },
        {
            "bufferView" : 21,
            "componentType" : 5126,
            "count" : 4,
            "type" : "VEC3"
        },
        {
            "bufferView" : 22,
            "componentType" : 5126,
            "count" : 4,
            "type" : "VEC4"
        },
        {
            "bufferView" : 23,
            "componentType" : 5126,
            "count" : 4,
            "type" : "VEC2"
        },
        {
            "bufferView" : 24,
            "componentType" : 5123,
            "count" : 6,
            "type" : "SCALAR"
        }
    ],
    "bufferViews" : [
        {
            "buffer" : 0,
            "byteLength" : 288,
            "byteOffset" : 0
        },
        {
            "buffer" : 0,
            "byteLength" : 288,
            "byteOffset" : 288
        },
        {
            "buffer" : 0,
            "byteLength" : 384,
            "byteOffset" : 576
        },
        {
            "buffer" : 0,
            "byteLength" : 192,
            "byteOffset" : 960
        },
        {
            "buffer" : 0,
            "byteLength" : 72,
            "byteOffset" : 1152
        },
        {
            "buffer" : 0,
            "byteLength" : 551064,
            "byteOffset" : 1224
        },
        {
            "buffer" : 0,
            "byteLength" : 551064,
            "byteOffset" : 552288
        },
        {
            "buffer" : 0,
            "byteLength" : 734752,
            "byteOffset" : 1103352
        },
        {
            "buffer" : 0,
            "byteLength" : 367376,
            "byteOffset" : 1838104
        },
        {
            "buffer" : 0,
            "byteLength" : 166656,
            "byteOffset" : 2205480
        },
        {
            "buffer" : 0,
            "byteLength" : 227328,
            "byteOffset" : 2372136
        },
        {
            "buffer" : 0,
            "byteLength" : 227328,
            "byteOffset" : 2599464
        },
        {
            "buffer" : 0,
            "byteLength" : 303104,
            "byteOffset" : 2826792
        },
        {
            "buffer" : 0,
            "byteLength" : 151552,
            "byteOffset" : 3129896
        },
        {
            "buffer" : 0,
            "byteLength" : 65856,
            "byteOffset" : 3281448
        },
        {
            "buffer" : 0,
            "byteLength" : 192,
            "byteOffset" : 3347304
        },
        {
            "buffer" : 0,
            "byteLength" : 192,
            "byteOffset" : 3347496
        },
        {
            "buffer" : 0,
            "byteLength" : 256,
            "byteOffset" : 3347688
        },
        {
            "buffer" : 0,
            "byteLength" : 128,
            "byteOffset" : 3347944
        },
        {
            "buffer" : 0,
            "byteLength" : 48,
            "byteOffset" : 3348072
        },
        {
            "buffer" : 0,
            "byteLength" : 48,
            "byteOffset" : 3348120
        },
        {
            "buffer" : 0,
            "byteLength" : 48,
            "byteOffset" : 3348168
        },
        {
            "buffer" : 0,
            "byteLength" : 64,
            "byteOffset" : 3348216
        },
        {
            "buffer" : 0,
            "byteLength" : 32,
            "byteOffset" : 3348280
        },
        {
            "buffer" : 0,
            "byteLength" : 12,
            "byteOffset" : 3348312
        }
    ],
    "buffers" : [
        {
            "byteLength" : 3348324,
            "uri" : "Cluster-Pillar.bin"
        }
    ]
}
